<svg xmlns="http://www.w3.org/2000/svg" xmlns:xlink="http://www.w3.org/1999/xlink" version="1.1" x="0px" y="0px" viewBox="1 781.1 16 20" enable-background="new 1 781.1 16 16" xml:space="preserve"><path fill="#f95344" d="M9,797.1c-4.4,0-8-3.6-8-8s3.6-8,8-8s8,3.6,8,8C16.9,793.5,13.3,797.1,9,797.1z M9,782.9  c-3.5,0-6.2,2.8-6.2,6.2c0,3.5,2.8,6.2,6.2,6.2c3.5,0,6.2-2.8,6.2-6.2C15.2,785.7,12.4,782.9,9,782.9z M12.6,792.8  c-0.1,0.1-0.3,0.1-0.4,0.1c-0.2,0-0.5-0.1-0.6-0.4c-0.4-0.7-1.5-1.3-2.5-1.3s-2.1,0.5-2.5,1.3c-0.2,0.3-0.7,0.5-1.1,0.2  c-0.3-0.2-0.5-0.7-0.2-1.1c0.7-1.3,2.2-2,3.9-2s3.2,0.7,3.9,2C13.1,792.2,12.9,792.6,12.6,792.8z M11.3,788.4  c-0.6,0-1.2-0.5-1.2-1.2s0.5-1.2,1.2-1.2s1.2,0.5,1.2,1.2S11.9,788.4,11.3,788.4z M6.6,788.4c-0.6,0-1.2-0.5-1.2-1.2  s0.5-1.2,1.2-1.2s1.2,0.5,1.2,1.2S7.2,788.4,6.6,788.4z"/></svg>
