<svg xmlns="http://www.w3.org/2000/svg" data-name="Layer 1" viewBox="0 0 1024 1280" x="0px" y="0px"><title>icon-01</title><path fill="#000000" d="M512 930.909091c-230.981818 0-418.909091-187.927273-418.909091-418.909091S281.018182 93.090909 512 93.090909s418.909091 187.927273 418.909091 418.909091-187.927273 418.909091-418.909091 418.909091m0-907.636364C242.082909 23.272727 23.272727 242.082909 23.272727 512s218.810182 488.727273 488.727273 488.727273 488.727273-218.810182 488.727273-488.727273S781.917091 23.272727 512 23.272727M279.272727 349.090909a58.181818 58.181818 0 1 0 0 116.363636 58.181818 58.181818 0 0 0 0-116.363636m477.090909 0a58.181818 58.181818 0 1 0 0 116.363636 58.181818 58.181818 0 0 0 0-116.363636M628.363636 686.545455H395.636364a34.909091 34.909091 0 1 0 0 69.818181h232.727272a34.909091 34.909091 0 1 0 0-69.818181"/><text x="0" y="1039" fill="#000000" font-size="5px" font-weight="bold" font-family="'Helvetica Neue', Helvetica, Arial-Unicode, Arial, Sans-serif">Created by Duncan Cleary</text><text x="0" y="1044" fill="#000000" font-size="5px" font-weight="bold" font-family="'Helvetica Neue', Helvetica, Arial-Unicode, Arial, Sans-serif">from the Noun Project</text></svg>