<svg xmlns="http://www.w3.org/2000/svg" xmlns:xlink="http://www.w3.org/1999/xlink" version="1.1" x="0px" y="0px" viewBox="-1.5 -1.5 18 22.5" enable-background="new -1.5 -1.5 18 18" xml:space="preserve"><path fill="#3ea834" d="M7.5,16.5c-5,0-9-4-9-9s4-9,9-9s9,4,9,9S12.5,16.5,7.5,16.5z M7.5,0.5c-3.9,0-7,3.2-7,7c0,3.9,3.2,7,7,7  c3.9,0,7-3.2,7-7C14.5,3.6,11.4,0.5,7.5,0.5z M7.5,12.5c-1.8,0-3.5-0.9-4.4-2.3C2.9,9.8,3,9.3,3.4,9c0.4-0.3,1-0.1,1.2,0.3  c0.5,0.9,1.7,1.4,2.9,1.4s2.3-0.6,2.9-1.4c0.3-0.4,0.8-0.5,1.2-0.3s0.5,0.8,0.3,1.2C11,11.7,9.3,12.5,7.5,12.5z M10.1,6.6  C9.4,6.6,8.8,6,8.8,5.3S9.4,4,10.1,4c0.7,0,1.3,0.6,1.3,1.3S10.9,6.6,10.1,6.6z M4.9,6.6C4.1,6.6,3.6,6,3.6,5.3S4.1,4,4.9,4  s1.3,0.6,1.3,1.3S5.6,6.6,4.9,6.6z"/></svg>
